<svg id="Layer_1" data-name="Layer 1" xmlns="http://www.w3.org/2000/svg" xmlns:xlink="http://www.w3.org/1999/xlink" viewBox="0 0 1192.52 353.27"><defs><style>.cls-1{fill:#162b5d;fill-rule:evenodd;}.cls-2{fill:none;}.cls-3{fill:url(#New_Gradient_Swatch);}.cls-4{fill:url(#New_Gradient_Swatch-2);}.cls-5{fill:url(#New_Gradient_Swatch-3);}.cls-6{fill:url(#New_Gradient_Swatch-4);}.cls-7{fill:url(#New_Gradient_Swatch-5);}.cls-8{fill:url(#New_Gradient_Swatch-6);}.cls-9{fill:url(#New_Gradient_Swatch-7);}.cls-10{fill:url(#New_Gradient_Swatch-8);}.cls-11{fill:url(#New_Gradient_Swatch-9);}.cls-12{fill:url(#New_Gradient_Swatch-10);}.cls-13{fill:url(#New_Gradient_Swatch-11);}.cls-14{fill:url(#New_Gradient_Swatch-12);}.cls-15{fill:url(#New_Gradient_Swatch-13);}.cls-16{fill:url(#New_Gradient_Swatch-14);}.cls-17{fill:url(#New_Gradient_Swatch-15);}.cls-18{fill:url(#New_Gradient_Swatch-16);}.cls-19{fill:url(#New_Gradient_Swatch-17);}.cls-20{fill:url(#New_Gradient_Swatch-18);}.cls-21{fill:url(#New_Gradient_Swatch-19);}.cls-22{fill:url(#New_Gradient_Swatch-20);}</style><linearGradient id="New_Gradient_Swatch" x1="101.24" y1="101.77" x2="262.45" y2="10.63" gradientUnits="userSpaceOnUse"><stop offset="0" stop-color="#0858cf"/><stop offset="1" stop-color="#01f1de"/></linearGradient><linearGradient id="New_Gradient_Swatch-2" x1="179.73" y1="240.61" x2="340.94" y2="149.48" xlink:href="#New_Gradient_Swatch"/><linearGradient id="New_Gradient_Swatch-3" x1="177.06" y1="235.91" x2="338.28" y2="144.77" xlink:href="#New_Gradient_Swatch"/><linearGradient id="New_Gradient_Swatch-4" x1="152.92" y1="193.2" x2="314.14" y2="102.07" xlink:href="#New_Gradient_Swatch"/><linearGradient id="New_Gradient_Swatch-5" x1="125.03" y1="143.85" x2="286.24" y2="52.72" xlink:href="#New_Gradient_Swatch"/><linearGradient id="New_Gradient_Swatch-6" x1="128.69" y1="150.33" x2="289.9" y2="59.2" xlink:href="#New_Gradient_Swatch"/><linearGradient id="New_Gradient_Swatch-7" x1="152.77" y1="192.93" x2="313.98" y2="101.8" xlink:href="#New_Gradient_Swatch"/><linearGradient id="New_Gradient_Swatch-8" x1="152.52" y1="192.48" x2="313.73" y2="101.35" xlink:href="#New_Gradient_Swatch"/><linearGradient id="New_Gradient_Swatch-9" x1="153.04" y1="193.41" x2="314.25" y2="102.28" xlink:href="#New_Gradient_Swatch"/><linearGradient id="New_Gradient_Swatch-10" x1="166.98" y1="218.07" x2="328.19" y2="126.94" xlink:href="#New_Gradient_Swatch"/><linearGradient id="New_Gradient_Swatch-11" x1="138.38" y1="167.48" x2="299.6" y2="76.35" xlink:href="#New_Gradient_Swatch"/><linearGradient id="New_Gradient_Swatch-12" x1="153.31" y1="193.89" x2="314.52" y2="102.76" xlink:href="#New_Gradient_Swatch"/><linearGradient id="New_Gradient_Swatch-13" x1="115.37" y1="126.78" x2="276.59" y2="35.65" xlink:href="#New_Gradient_Swatch"/><linearGradient id="New_Gradient_Swatch-14" x1="100.99" y1="101.33" x2="262.2" y2="10.19" xlink:href="#New_Gradient_Swatch"/><linearGradient id="New_Gradient_Swatch-15" x1="129.02" y1="150.92" x2="290.23" y2="59.79" xlink:href="#New_Gradient_Swatch"/><linearGradient id="New_Gradient_Swatch-16" x1="189.73" y1="258.32" x2="350.94" y2="167.18" xlink:href="#New_Gradient_Swatch"/><linearGradient id="New_Gradient_Swatch-17" x1="204.27" y1="284.03" x2="365.48" y2="192.9" xlink:href="#New_Gradient_Swatch"/><linearGradient id="New_Gradient_Swatch-18" x1="177.35" y1="236.41" x2="338.56" y2="145.28" xlink:href="#New_Gradient_Swatch"/><linearGradient id="New_Gradient_Swatch-19" x1="204.02" y1="283.59" x2="365.23" y2="192.45" xlink:href="#New_Gradient_Swatch"/><linearGradient id="New_Gradient_Swatch-20" x1="153.15" y1="193.61" x2="314.37" y2="102.48" xlink:href="#New_Gradient_Swatch"/></defs><path class="cls-1" d="M433.8,235.91,387.4,115.83h21.9l30.92,86.49q1.81,5.1,3.37,10l.52,1.63.64-2q1.58-4.78,3.4-9.64l32.06-86.46h20.91q-23.69,60.81-47.41,121.61H434.39l-.59-1.53ZM549,235.05V115.83h20.27V237.44H549v-2.39Zm77.09-39.9L643,193.64l.28,2.3a37.55,37.55,0,0,0,1.6,7.55,24,24,0,0,0,2.82,5.87A19.8,19.8,0,0,0,652,213.9a30.21,30.21,0,0,0,6.41,3.74,38.22,38.22,0,0,0,8,2.45,47,47,0,0,0,9,.83,47.79,47.79,0,0,0,7.93-.62,34.11,34.11,0,0,0,6.82-1.85,24.44,24.44,0,0,0,5.37-2.85,15.82,15.82,0,0,0,3.62-3.59,15.22,15.22,0,0,0,2.16-4.17,13.86,13.86,0,0,0,.71-4.44,12.92,12.92,0,0,0-2.68-8.12,14.65,14.65,0,0,0-3.63-3.22,31.06,31.06,0,0,0-5.86-2.9c-1.56-.58-4-1.35-7.41-2.27s-7.85-2.06-13.1-3.32q-8.21-2-13.87-3.81a58.73,58.73,0,0,1-9.24-3.68,40.07,40.07,0,0,1-7.73-5.24,29.92,29.92,0,0,1-5.59-6.51,28.27,28.27,0,0,1-3.36-7.49,30.57,30.57,0,0,1-1.12-8.33,31.8,31.8,0,0,1,1.37-9.26,33.55,33.55,0,0,1,4-8.6,31.14,31.14,0,0,1,6.68-7.32,36.88,36.88,0,0,1,9.06-5.26,52.72,52.72,0,0,1,10.65-3.15,64.43,64.43,0,0,1,11.69-1A70.49,70.49,0,0,1,684.53,115a52.31,52.31,0,0,1,11.15,3.29,38.07,38.07,0,0,1,9.34,5.5,33.25,33.25,0,0,1,7,7.71,36.69,36.69,0,0,1,4.37,9.24,40.26,40.26,0,0,1,1.75,10.38l.09,2.29-19.43,1.5-.25-2.31a27.05,27.05,0,0,0-2.39-8.92,17.88,17.88,0,0,0-4.82-6.18,20.51,20.51,0,0,0-7.67-3.8,42.63,42.63,0,0,0-11.2-1.31c-8.8,0-15.14,1.53-19,4.6a15.6,15.6,0,0,0-4.19,4.91,12.21,12.21,0,0,0-1.33,5.64,11.73,11.73,0,0,0,.93,4.77,11.25,11.25,0,0,0,2.81,3.82c1.27,1.14,3.72,2.37,7.34,3.66a131.19,131.19,0,0,0,14.9,4.11q9.6,2.19,16,4a82.84,82.84,0,0,1,10.3,3.57,46.78,46.78,0,0,1,9.34,5.61,31.37,31.37,0,0,1,6.69,7.12,29.78,29.78,0,0,1,4,8.4,33.84,33.84,0,0,1,1.31,9.49,33.33,33.33,0,0,1-1.45,9.73,35.83,35.83,0,0,1-4.27,9.1,35,35,0,0,1-7,7.86,40.55,40.55,0,0,1-9.35,5.82,51,51,0,0,1-11.13,3.59,61.75,61.75,0,0,1-12.35,1.2,87.82,87.82,0,0,1-14.93-1.19,55.7,55.7,0,0,1-12.52-3.63,41.45,41.45,0,0,1-10.14-6.13,38.37,38.37,0,0,1-7.7-8.65,40.5,40.5,0,0,1-4.93-10.48A44.47,44.47,0,0,1,624,197.59l-.06-2.24,2.23-.2Zm151.58,39.9V115.83H798V237.44H777.71v-2.39ZM936.59,115.83h17.88v69.86a115.74,115.74,0,0,1-1,16.13,59.34,59.34,0,0,1-3.1,12.7,34.82,34.82,0,0,1-6,10.08,40.22,40.22,0,0,1-9.31,7.93,42.57,42.57,0,0,1-12.71,5.16,68.09,68.09,0,0,1-15.8,1.7,74.65,74.65,0,0,1-15.38-1.47,46.31,46.31,0,0,1-12.54-4.48A35.76,35.76,0,0,1,869,226a34.67,34.67,0,0,1-6.38-10.14,57.51,57.51,0,0,1-3.5-13.26A113.65,113.65,0,0,1,858,185.69V115.83h20.28v69.83a103.74,103.74,0,0,0,.68,12.93,36.8,36.8,0,0,0,2,8.65,19.52,19.52,0,0,0,3.41,5.72,19.76,19.76,0,0,0,5.21,4.18,25.74,25.74,0,0,0,7,2.7,37.82,37.82,0,0,0,8.62.91A46.09,46.09,0,0,0,919,218.94a19.67,19.67,0,0,0,8.64-5.15q3.2-3.42,4.84-10.24a77.59,77.59,0,0,0,1.72-17.89V115.83Zm75.85,119.22V115.83h27.26l28.18,84.34,3.36,10.25,4-11.71,28.69-82.88h24.76V237.44H1109V151.36l-30,86.08h-17.31L1032.05,150v87.47h-19.61Z"/><path class="cls-2" d="M98.47,119.75a17.85,17.85,0,0,1-2.94,5.08l87.95,152.33a17.85,17.85,0,0,1,2.94-.24,17.06,17.06,0,0,1,3,.25l87.94-152.33a17.9,17.9,0,0,1-2.94-5.09Zm84.38,4H190V156.9h-.16l-.05,0h-.11l-.06,0h-6.38l0,0h-.11l-.06,0h-.16Zm-38.1,78.33-3.57-6.19h0l28.73-16.55,0,.11v0l.06.18v0l0,.09,0,.11h0l0,.09.08.21,0,.09v0l0,.1,0,.08v0l0,.1,0,.06.2.46,0,.1v0l0,.08,0,.1h0l0,.1,0,.1.05.1,0,.08v0l0,.09,0,.08v0l.05.1,0,.06,0,0,.05.1,0,0,0,0,.06.1,0,0,0,.06.11.19.05.1h0l.06.08,0,.1.31.47,0,.06,0,0,.06.09,0,.05.16.22.07.1.07.09.06.08v0l.12.16.4.49,0,0,.39.45,0,.06Zm28.73-39.76-.06.06,0,0-.07.08-.05.06,0,0-.08.09,0,0,0,0-.11.13,0,0-.07.08,0,0,0,.06-.07.09h0l-.05.08-.07.08h0l-.06.08-.06.08h0l-.06.09-.06.07v0l-.06.09-.05.06,0,0-.06.09,0,.05,0,0-.06.09,0,0,0,.06-.06.09,0,0,0,.06-.06.09,0,0,0,.08-.06.09h0l-.11.18h0l-.06.1-.05.08v0l-.05.09,0,.07,0,0-.05.1,0,.05,0,0-.05.1,0,0,0,.05-.05.1v0l0,.07,0,.1v0l0,.08,0,.1h0l0,.09,0,.1h0l0,.1,0,.09h0l0,.11,0,.07v0l0,.1,0,.06V167l0,.1,0,.05,0,0,0,.11v0l0,.07,0,.1v0l0,.08,0,.11h0l0,.09,0,.11h0l0,.11,0,.09h0l0,.11,0,.08v0l-1.11-.64-67.61-39a24.7,24.7,0,0,0,3.53-6.18q34.46,19.76,68.79,39.72Zm16.51,29v79h-1.57c-.66-.06-1.33-.09-2-.09s-1.34,0-2,.09h-1.57V190.92a17.41,17.41,0,0,0,7.14,0Zm5.21-8.62a12.41,12.41,0,1,1,3.65-8.79A12.39,12.39,0,0,1,195.2,182.7Zm33,19.28,0,0L199.45,185.4l.08-.08,0,0,0,0,.07-.09,0,0,.13-.16,0-.06.07-.09h0l.06-.08.07-.08h0l.07-.09.06-.08h0l.07-.09,0-.06.08-.12,0-.05,0,0,.06-.09,0,0,.1-.14,0,0,.11-.15v0l.11-.16h0l.17-.27,0-.08h0l.06-.1,0-.07,0,0,0-.1,0-.06,0,0,.06-.1,0-.05,0-.05.06-.09,0,0,0-.05.06-.1v0l0-.07,0-.1h0l0-.08.05-.11h0l0-.1,0-.09h0l.05-.1,0-.08,0,0,0-.1,0-.07v0l.05-.11,0-.05,0,0,0-.11,0,0,0-.06,0-.1v0l0-.07,0-.1v0l0-.09.16-.42,0-.09v0l0-.1.15-.43v-.05l0-.06,28.77,16.57Zm-25.23-33.49,0-.11-.08-.24,0-.08,0-.11h0l0-.09,0-.11,0-.11,0-.09h0l0-.11,0-.07,0,0,0-.1,0-.07-.06-.14,0-.06,0,0-.05-.11v0l-.09-.19,0-.07,0-.1v0l0-.09-.06-.1h0l0-.1,0-.09h0l0-.1-.05-.1,0-.09-.06-.1-.05-.1,0-.06,0,0,0-.1-.17-.29-.06-.09v0l-.05-.08-.06-.09h0l0-.1-.25-.37,0-.06,0,0-.06-.1,0,0,0,0-.06-.09-.15-.21-.05-.06-.06-.09h0l-.06-.08-.06-.09h0l-.39-.49-.27-.32,0,0h0l-.08-.09,0,0,0,0q34.37-19.89,68.76-39.7a24.68,24.68,0,0,0,3.56,6.16Z"/><path class="cls-3" d="M173.12,64.82l.36-.2L173,64l-.28-.34-.07-.09h0l-.07-.09-.05-.07v0l-.07-.09,0-.06-.25-.34,0-.06-.07-.09v0l-.05-.07-.24-.38-.06-.08-.11-.18v0l-.06-.1,0-.06-.14-.23,0-.1,0,0,0-.07-.05-.1v0l0-.07-.06-.1h0l-.1-.19h0l0-.1-.05-.09h0l0-.1,0-.08v0l-.05-.11,0-.06,0,0-.05-.1,0,0-.11-.26-.05-.11v0l0-.08,0-.1h0l0-.1-.12-.32,0-.1,0-.08v0l0-.1,0-.07,0,0,0-.11,0,0,0-.06,0-.11L101.11,98.15a24.42,24.42,0,0,1,3.59,6.18Z"/><path class="cls-4" d="M294.68,217.34V138a24.64,24.64,0,0,1-7.14,0v79.39a17.88,17.88,0,0,1,7.14,0Z"/><path class="cls-5" d="M182.85,190.92v79.39h1.57c.66-.05,1.33-.09,2-.09s1.34,0,2,.09H190V190.92a17.41,17.41,0,0,1-7.14,0Z"/><polygon class="cls-6" points="173.04 184.99 173.02 184.97 172.63 184.47 172.5 184.31 172.49 184.29 172.43 184.21 172.36 184.12 172.29 184.02 172.13 183.8 172.1 183.75 172.04 183.66 172.02 183.63 171.98 183.57 171.67 183.1 171.62 183 171.56 182.92 171.55 182.91 171.5 182.81 171.39 182.62 171.35 182.56 171.33 182.53 171.28 182.43 171.24 182.38 171.22 182.33 171.17 182.23 171.15 182.19 171.11 182.13 171.06 182.03 171.04 182.01 171.01 181.93 170.96 181.84 170.95 181.82 170.9 181.74 170.85 181.64 170.8 181.54 170.76 181.44 170.76 181.43 170.71 181.33 170.67 181.25 170.66 181.23 170.61 181.13 170.41 180.68 170.39 180.61 170.34 180.51 170.33 180.48 170.3 180.4 170.26 180.3 170.25 180.28 170.22 180.19 170.14 179.98 170.1 179.89 170.1 179.88 170.06 179.77 170.03 179.68 170.02 179.66 169.96 179.48 169.95 179.45 169.91 179.34 141.18 195.89 141.18 195.89 144.75 202.08 173.48 185.5 173.43 185.44 173.04 184.99"/><path class="cls-7" d="M268.15,104.32a24.59,24.59,0,0,1,3.57-6.17L203.27,58.62l-.33-.18,0,.11,0,.05,0,0,0,.11v0l0,.07,0,.1,0,0,0,.08-.05.11h0l0,.09,0,.11h0l-.08.19v0l0,.1,0,.08v0l0,.1,0,.07,0,0,0,.11,0,0,0,0,0,.1,0,0,0,.06-.05.11,0,0,0,.08-.05.1h0l0,.09,0,.1-.05.1,0,.08v0l0,.1,0,.07v0l-.06.1,0,.06,0,0-.06.1,0,0,0,0-.06.09,0,0,0,.06,0,.1,0,0,0,.07-.06.1h0l0,.08-.06.09h0l-.06.09-.05.08h0l-.06.1,0,.06,0,0-.06.09,0,0,0,0-.07.1,0,0,0,0-.07.09,0,0,0,.06-.07.09v0l-.06.07-.06.09h0l-.06.08-.07.09h0l-.07.09-.06.07v0l-.07.08,0,.06,0,0-.07.08,0,0,0,0-.07.08,0,0,0,0-.08.08,0,0,0,.06.36.2Z"/><path class="cls-8" d="M101.23,128.69l67.61,39,1.11.64v0l0-.08,0-.11h0l0-.09,0-.11h0l0-.11,0-.09h0l0-.11,0-.08v0l0-.1,0-.07v0l0-.11,0,0,0-.05,0-.1V167l0-.06,0-.1v0l0-.07,0-.11h0l0-.09,0-.1h0l0-.1,0-.09h0l0-.1,0-.08v0l0-.1,0-.07v0l.05-.1,0-.05,0,0,.05-.1,0,0,0-.05.05-.1,0,0,0-.07.05-.09v0l.05-.08.06-.1h0l.11-.18h0l.06-.09,0-.08,0,0,.06-.09,0-.06,0,0,.06-.09,0-.06,0,0,.06-.09,0,0,0-.05.06-.09,0,0,.05-.06.06-.09v0l.06-.07.06-.09h0l.06-.08.06-.08h0l.07-.08.05-.08h0l.07-.09,0-.06,0,0,.07-.08,0,0,.11-.13,0,0,0,0,.08-.09,0,0,.05-.06.07-.08,0,0,.06-.06.07-.09q-34.37-19.9-68.79-39.72A24.7,24.7,0,0,1,101.23,128.69Z"/><path class="cls-9" d="M186.42,161.49a12.43,12.43,0,1,0,8.79,3.64A12.37,12.37,0,0,0,186.42,161.49Z"/><path class="cls-10" d="M199.37,162.33l0,0,0,0,.08.09h0l0,0,.27.32.39.49h0l.06.09.06.08h0l.06.09.05.06.15.21.06.09,0,0,0,0,.06.1,0,0,0,.06.25.37,0,.1h0l.06.09.05.08v0l.06.09.17.29,0,.1,0,0,0,.06.05.1.06.1,0,.09.05.1,0,.1h0l0,.09,0,.1h0l.06.1,0,.09v0l0,.1,0,.07.09.19v0l.05.11,0,0,0,.06.06.14,0,.07,0,.1,0,0,0,.07,0,.11h0l0,.09,0,.11,0,.11,0,.09h0l0,.11,0,.08.08.24,0,.11,68.75-39.7a24.68,24.68,0,0,1-3.56-6.16Q233.69,142.37,199.37,162.33Z"/><path class="cls-11" d="M303.75,100.83a17.88,17.88,0,0,0-29.37,6.36H98.47a17.87,17.87,0,1,0-16.73,24.15,17.64,17.64,0,0,0,2.93-.24l88,152.33a17.87,17.87,0,1,0,27.58,0l88-152.33a17.88,17.88,0,0,0,15.59-30.27ZM189.38,277.17a17.06,17.06,0,0,0-3-.25,17.85,17.85,0,0,0-2.94.24L95.53,124.83a17.85,17.85,0,0,0,2.94-5.08H274.38a17.9,17.9,0,0,0,2.94,5.09Z"/><polygon class="cls-12" points="202.96 179.28 202.94 179.33 202.79 179.76 202.75 179.87 202.74 179.88 202.71 179.97 202.55 180.39 202.51 180.48 202.5 180.5 202.46 180.6 202.43 180.67 202.42 180.71 202.38 180.81 202.35 180.87 202.33 180.91 202.28 181.02 202.26 181.06 202.24 181.11 202.19 181.22 202.18 181.25 202.14 181.32 202.1 181.42 202.08 181.44 202.04 181.52 202 181.62 201.99 181.63 201.94 181.72 201.9 181.82 201.9 181.82 201.84 181.93 201.8 182.01 201.79 182.02 201.74 182.12 201.7 182.19 201.69 182.22 201.63 182.32 201.6 182.37 201.58 182.42 201.52 182.51 201.5 182.56 201.47 182.61 201.41 182.71 201.39 182.74 201.35 182.8 201.3 182.9 201.28 182.92 201.24 182.99 201.18 183.09 201.17 183.1 201.12 183.18 200.94 183.45 200.94 183.46 200.83 183.62 200.82 183.65 200.71 183.8 200.69 183.83 200.59 183.97 200.56 184.01 200.5 184.1 200.47 184.14 200.43 184.19 200.35 184.31 200.3 184.37 200.23 184.46 200.22 184.47 200.16 184.55 200.09 184.64 200.09 184.64 200.02 184.72 199.96 184.8 199.95 184.81 199.88 184.9 199.83 184.97 199.7 185.12 199.67 185.15 199.6 185.24 199.56 185.28 199.53 185.32 199.46 185.4 228.14 201.96 228.17 201.98 231.74 195.79 202.97 179.22 202.96 179.28"/><polygon class="cls-13" points="182.92 156.88 182.96 156.88 183.01 156.87 183.07 156.85 183.12 156.84 183.13 156.84 183.18 156.84 183.23 156.82 183.29 156.81 183.34 156.81 183.35 156.8 183.4 156.79 183.45 156.78 183.5 156.78 183.56 156.77 183.56 156.77 183.62 156.76 183.67 156.75 183.72 156.74 183.78 156.73 183.84 156.72 183.89 156.72 183.94 156.71 183.99 156.7 184 156.7 184.06 156.69 184.11 156.69 184.17 156.68 184.21 156.67 184.22 156.67 184.28 156.66 184.33 156.66 184.39 156.65 184.43 156.65 184.44 156.65 184.5 156.64 184.56 156.63 184.61 156.63 184.65 156.62 184.67 156.62 184.72 156.62 184.78 156.61 184.84 156.6 184.87 156.6 184.89 156.6 184.95 156.59 185 156.59 185.06 156.59 185.09 156.58 185.12 156.58 185.17 156.58 185.23 156.57 185.28 156.57 185.31 156.57 185.34 156.57 185.4 156.56 185.45 156.56 185.51 156.56 185.53 156.56 185.57 156.55 185.63 156.55 185.68 156.55 185.74 156.54 185.75 156.54 185.79 156.54 185.85 156.54 185.91 156.54 185.97 156.54 185.97 156.54 186.02 156.54 186.08 156.54 186.14 156.53 186.19 156.53 186.2 156.53 186.25 156.53 186.31 156.53 186.37 156.53 186.42 156.53 186.48 156.53 186.54 156.53 186.59 156.53 186.65 156.53 186.65 156.53 186.71 156.53 186.77 156.54 186.82 156.54 186.87 156.54 186.88 156.54 186.94 156.54 187 156.54 187.05 156.54 187.09 156.54 187.11 156.54 187.16 156.55 187.22 156.55 187.28 156.55 187.32 156.56 187.34 156.56 187.39 156.56 187.45 156.56 187.5 156.57 187.54 156.57 187.56 156.57 187.62 156.57 187.67 156.58 187.73 156.58 187.76 156.58 187.79 156.59 187.84 156.59 187.9 156.59 187.96 156.6 187.98 156.6 188.01 156.6 188.07 156.61 188.12 156.62 188.18 156.62 188.2 156.62 188.23 156.63 188.29 156.63 188.35 156.64 188.4 156.65 188.42 156.65 188.46 156.65 188.51 156.66 188.57 156.66 188.62 156.67 188.64 156.67 188.68 156.68 188.74 156.69 188.79 156.69 188.84 156.7 188.85 156.7 188.9 156.71 188.96 156.72 189.01 156.72 189.06 156.73 189.07 156.73 189.12 156.74 189.18 156.75 189.23 156.76 189.28 156.77 189.29 156.77 189.34 156.78 189.4 156.78 189.45 156.79 189.5 156.8 189.5 156.81 189.56 156.81 189.61 156.82 189.67 156.84 189.72 156.84 189.78 156.85 189.83 156.87 189.88 156.88 189.93 156.88 189.94 156.89 189.99 156.9 189.99 123.75 182.85 123.75 182.85 156.9 182.91 156.89 182.92 156.88"/><path class="cls-14" d="M81.74,221.93a12.41,12.41,0,1,0,8.78,3.64A12.38,12.38,0,0,0,81.74,221.93Z"/><polygon class="cls-15" points="189.88 70.06 189.83 70.07 189.78 70.08 189.72 70.09 189.71 70.09 189.67 70.1 189.61 70.11 189.56 70.12 189.5 70.13 189.5 70.13 189.45 70.14 189.4 70.15 189.34 70.16 189.28 70.17 189.28 70.17 189.23 70.18 189.18 70.19 189.12 70.19 189.07 70.2 189.06 70.2 189.01 70.21 188.96 70.22 188.9 70.23 188.85 70.24 188.84 70.24 188.79 70.24 188.74 70.25 188.68 70.26 188.63 70.27 188.62 70.27 188.57 70.27 188.51 70.28 188.46 70.29 188.42 70.29 188.4 70.29 188.35 70.3 188.29 70.31 188.23 70.31 188.2 70.31 188.18 70.32 188.12 70.32 188.07 70.33 188.01 70.33 187.98 70.34 187.96 70.34 187.9 70.34 187.84 70.35 187.79 70.35 187.76 70.35 187.73 70.36 187.67 70.36 187.62 70.36 187.56 70.37 187.54 70.37 187.5 70.37 187.45 70.38 187.39 70.38 187.34 70.38 187.32 70.38 187.28 70.39 187.22 70.39 187.16 70.39 187.11 70.39 187.09 70.39 187.05 70.39 187 70.4 186.94 70.4 186.88 70.4 186.87 70.4 186.82 70.4 186.77 70.4 186.71 70.4 186.65 70.4 186.65 70.4 186.59 70.41 186.54 70.41 186.48 70.41 186.42 70.41 186.37 70.41 186.31 70.41 186.25 70.41 186.2 70.4 186.19 70.4 186.14 70.4 186.08 70.4 186.02 70.4 185.97 70.4 185.97 70.4 185.91 70.4 185.85 70.4 185.79 70.39 185.75 70.39 185.74 70.39 185.68 70.39 185.63 70.39 185.57 70.39 185.53 70.38 185.51 70.38 185.45 70.38 185.4 70.38 185.34 70.37 185.31 70.37 185.28 70.37 185.23 70.36 185.17 70.36 185.12 70.36 185.09 70.35 185.06 70.35 185 70.35 184.95 70.34 184.89 70.34 184.87 70.34 184.84 70.33 184.78 70.33 184.72 70.32 184.67 70.32 184.65 70.31 184.61 70.31 184.56 70.31 184.5 70.3 184.44 70.29 184.43 70.29 184.39 70.29 184.33 70.28 184.28 70.27 184.22 70.27 184.21 70.27 184.17 70.26 184.11 70.25 184.06 70.24 184 70.24 184 70.24 183.94 70.23 183.89 70.22 183.84 70.21 183.78 70.2 183.72 70.19 183.67 70.19 183.62 70.18 183.56 70.17 183.56 70.17 183.5 70.16 183.45 70.15 183.4 70.14 183.35 70.13 183.34 70.13 183.29 70.12 183.23 70.11 183.18 70.1 183.13 70.09 183.12 70.09 183.07 70.08 183.01 70.07 182.96 70.06 182.92 70.05 182.91 70.05 182.85 70.04 182.85 103.19 189.99 103.19 189.99 70.04 189.94 70.05 189.92 70.05 189.88 70.06"/><path class="cls-16" d="M186.42,65.45a12.43,12.43,0,1,0-8.78-3.64A12.39,12.39,0,0,0,186.42,65.45Z"/><path class="cls-17" d="M85.31,217.34V138a24.83,24.83,0,0,1-3.58.26,24.55,24.55,0,0,1-3.56-.26v79.39a17.88,17.88,0,0,1,7.14,0Z"/><path class="cls-18" d="M245.92,212.23l27.61,15.94,1.11.64a17.28,17.28,0,0,1,3.6-6.13q-14.36-8.35-28.73-16.65Z"/><path class="cls-19" d="M274.25,240l-68.42,39.51a24.71,24.71,0,0,1,3.57,6.16l68.4-39.5.36-.2a17.38,17.38,0,0,1-3.56-6.17Z"/><path class="cls-20" d="M98.25,239.77a17.33,17.33,0,0,1-3.56,6.16l.36.2,68.4,39.51a24.6,24.6,0,0,1,3.55-6.16L98.61,240Z"/><path class="cls-21" d="M291.11,221.93a12.43,12.43,0,1,0,8.78,3.64A12.35,12.35,0,0,0,291.11,221.93Z"/><path class="cls-22" d="M127,212.35h0l-3.58-6.2L94.68,222.77a17.36,17.36,0,0,1,3.57,6.16Z"/></svg>